<mxfile host="app.diagrams.net" modified="2021-09-24T03:13:42.274Z" agent="5.0 (Macintosh; Intel Mac OS X 10_15_7) AppleWebKit/537.36 (KHTML, like Gecko) Chrome/93.0.4577.82 Safari/537.36" etag="J0l-YGpKMV7dFL1ePCcA" version="15.3.1" type="github">
  <diagram id="Cgl0OQKsK_o0VHRsqys9" name="Page-1">
    <mxGraphModel dx="1779" dy="610" grid="1" gridSize="10" guides="1" tooltips="1" connect="1" arrows="1" fold="1" page="1" pageScale="1" pageWidth="827" pageHeight="1169" math="0" shadow="0">
      <root>
        <mxCell id="0" />
        <mxCell id="1" parent="0" />
        <mxCell id="_Y8b7Wgee1ZM3KUy6TIY-44" value="" style="rounded=0;whiteSpace=wrap;html=1;shadow=0;strokeColor=#1A1A1A;fillColor=#FFFF99;" vertex="1" parent="1">
          <mxGeometry x="540" y="280" width="126" height="290" as="geometry" />
        </mxCell>
        <mxCell id="_Y8b7Wgee1ZM3KUy6TIY-49" style="edgeStyle=none;rounded=0;orthogonalLoop=1;jettySize=auto;html=1;entryX=0.413;entryY=0;entryDx=0;entryDy=0;entryPerimeter=0;" edge="1" parent="1" source="_Y8b7Wgee1ZM3KUy6TIY-4" target="_Y8b7Wgee1ZM3KUy6TIY-5">
          <mxGeometry relative="1" as="geometry" />
        </mxCell>
        <mxCell id="_Y8b7Wgee1ZM3KUy6TIY-4" value="client" style="shape=umlActor;verticalLabelPosition=bottom;verticalAlign=top;html=1;outlineConnect=0;" vertex="1" parent="1">
          <mxGeometry x="110" y="180" width="30" height="50" as="geometry" />
        </mxCell>
        <mxCell id="_Y8b7Wgee1ZM3KUy6TIY-50" style="edgeStyle=none;rounded=0;orthogonalLoop=1;jettySize=auto;html=1;exitX=0.5;exitY=1;exitDx=0;exitDy=0;" edge="1" parent="1" source="_Y8b7Wgee1ZM3KUy6TIY-5" target="_Y8b7Wgee1ZM3KUy6TIY-19">
          <mxGeometry relative="1" as="geometry" />
        </mxCell>
        <mxCell id="_Y8b7Wgee1ZM3KUy6TIY-51" style="edgeStyle=none;rounded=0;orthogonalLoop=1;jettySize=auto;html=1;entryX=0;entryY=0.5;entryDx=0;entryDy=0;" edge="1" parent="1" source="_Y8b7Wgee1ZM3KUy6TIY-5" target="_Y8b7Wgee1ZM3KUy6TIY-45">
          <mxGeometry relative="1" as="geometry" />
        </mxCell>
        <mxCell id="_Y8b7Wgee1ZM3KUy6TIY-5" value="nginx" style="whiteSpace=wrap;html=1;aspect=fixed;shadow=0;strokeColor=#1A1A1A;fillColor=#CF99FF;" vertex="1" parent="1">
          <mxGeometry x="85" y="280" width="75" height="75" as="geometry" />
        </mxCell>
        <mxCell id="_Y8b7Wgee1ZM3KUy6TIY-10" value="micro-tool-app-business" style="rounded=0;whiteSpace=wrap;html=1;shadow=0;strokeColor=#1A1A1A;fillColor=#CCFF99;" vertex="1" parent="1">
          <mxGeometry x="549" y="400" width="110" height="30" as="geometry" />
        </mxCell>
        <mxCell id="_Y8b7Wgee1ZM3KUy6TIY-11" value="micro-tool-app-cms" style="rounded=0;whiteSpace=wrap;html=1;shadow=0;strokeColor=#1A1A1A;fillColor=#CCFF99;" vertex="1" parent="1">
          <mxGeometry x="549" y="360" width="110" height="30" as="geometry" />
        </mxCell>
        <mxCell id="_Y8b7Wgee1ZM3KUy6TIY-12" value="order-pay-center" style="rounded=0;whiteSpace=wrap;html=1;shadow=0;strokeColor=#1A1A1A;fillColor=#CCFF99;" vertex="1" parent="1">
          <mxGeometry x="549" y="320" width="110" height="30" as="geometry" />
        </mxCell>
        <mxCell id="_Y8b7Wgee1ZM3KUy6TIY-13" style="edgeStyle=orthogonalEdgeStyle;curved=1;rounded=0;orthogonalLoop=1;jettySize=auto;html=1;exitX=0.5;exitY=1;exitDx=0;exitDy=0;" edge="1" parent="1" source="_Y8b7Wgee1ZM3KUy6TIY-12" target="_Y8b7Wgee1ZM3KUy6TIY-12">
          <mxGeometry relative="1" as="geometry" />
        </mxCell>
        <mxCell id="_Y8b7Wgee1ZM3KUy6TIY-14" value="micro-tool-app-statistic" style="rounded=0;whiteSpace=wrap;html=1;shadow=0;strokeColor=#1A1A1A;fillColor=#CCFF99;" vertex="1" parent="1">
          <mxGeometry x="549" y="440" width="110" height="30" as="geometry" />
        </mxCell>
        <mxCell id="_Y8b7Wgee1ZM3KUy6TIY-15" value="micro-tool-app-wps" style="rounded=0;whiteSpace=wrap;html=1;shadow=0;strokeColor=#1A1A1A;fillColor=#CCFF99;" vertex="1" parent="1">
          <mxGeometry x="549" y="480" width="110" height="30" as="geometry" />
        </mxCell>
        <mxCell id="_Y8b7Wgee1ZM3KUy6TIY-16" value="micro-tool-app-2wps" style="rounded=0;whiteSpace=wrap;html=1;shadow=0;strokeColor=#1A1A1A;fillColor=#CCFF99;" vertex="1" parent="1">
          <mxGeometry x="549" y="520" width="110" height="30" as="geometry" />
        </mxCell>
        <mxCell id="_Y8b7Wgee1ZM3KUy6TIY-19" value="php" style="whiteSpace=wrap;html=1;aspect=fixed;shadow=0;strokeColor=#1A1A1A;fillColor=#CF99FF;" vertex="1" parent="1">
          <mxGeometry x="90" y="400" width="80" height="80" as="geometry" />
        </mxCell>
        <mxCell id="_Y8b7Wgee1ZM3KUy6TIY-48" style="edgeStyle=none;rounded=0;orthogonalLoop=1;jettySize=auto;html=1;exitX=1;exitY=0.5;exitDx=0;exitDy=0;" edge="1" parent="1" source="_Y8b7Wgee1ZM3KUy6TIY-45">
          <mxGeometry relative="1" as="geometry">
            <mxPoint x="540" y="430" as="targetPoint" />
          </mxGeometry>
        </mxCell>
        <mxCell id="_Y8b7Wgee1ZM3KUy6TIY-70" value="路由" style="edgeLabel;html=1;align=center;verticalAlign=middle;resizable=0;points=[];" vertex="1" connectable="0" parent="_Y8b7Wgee1ZM3KUy6TIY-48">
          <mxGeometry x="-0.3974" y="2" relative="1" as="geometry">
            <mxPoint as="offset" />
          </mxGeometry>
        </mxCell>
        <mxCell id="_Y8b7Wgee1ZM3KUy6TIY-45" value="&lt;font face=&quot;helvetica&quot;&gt;gateway&lt;/font&gt;" style="rounded=0;whiteSpace=wrap;html=1;shadow=0;strokeColor=#1A1A1A;fillColor=#33FFFF;" vertex="1" parent="1">
          <mxGeometry x="384" y="300" width="60" height="250" as="geometry" />
        </mxCell>
        <mxCell id="_Y8b7Wgee1ZM3KUy6TIY-54" value="nacos" style="rounded=1;whiteSpace=wrap;html=1;shadow=0;dashed=1;strokeWidth=2;glass=0;sketch=0;strokeColor=#00CC00;align=center;verticalAlign=middle;" vertex="1" parent="1">
          <mxGeometry x="480" y="140" width="160" height="70" as="geometry" />
        </mxCell>
        <mxCell id="_Y8b7Wgee1ZM3KUy6TIY-56" value="Untitled Layer" parent="0" />
        <mxCell id="_Y8b7Wgee1ZM3KUy6TIY-58" value="微服务注册/配置中心" style="text;html=1;resizable=0;autosize=1;align=center;verticalAlign=middle;points=[];fillColor=none;strokeColor=none;rounded=0;shadow=0;glass=0;dashed=1;sketch=0;" vertex="1" parent="_Y8b7Wgee1ZM3KUy6TIY-56">
          <mxGeometry x="495" y="190" width="130" height="20" as="geometry" />
        </mxCell>
        <mxCell id="_Y8b7Wgee1ZM3KUy6TIY-66" style="edgeStyle=none;rounded=0;orthogonalLoop=1;jettySize=auto;html=1;exitX=0.5;exitY=0;exitDx=0;exitDy=0;" edge="1" parent="_Y8b7Wgee1ZM3KUy6TIY-56" source="_Y8b7Wgee1ZM3KUy6TIY-45" target="_Y8b7Wgee1ZM3KUy6TIY-58">
          <mxGeometry relative="1" as="geometry" />
        </mxCell>
        <mxCell id="_Y8b7Wgee1ZM3KUy6TIY-69" value="注册" style="edgeLabel;html=1;align=center;verticalAlign=middle;resizable=0;points=[];" vertex="1" connectable="0" parent="_Y8b7Wgee1ZM3KUy6TIY-66">
          <mxGeometry x="-0.1295" y="4" relative="1" as="geometry">
            <mxPoint as="offset" />
          </mxGeometry>
        </mxCell>
        <mxCell id="_Y8b7Wgee1ZM3KUy6TIY-68" value="注册" style="edgeStyle=none;rounded=0;orthogonalLoop=1;jettySize=auto;html=1;exitX=0.5;exitY=0;exitDx=0;exitDy=0;entryX=0.377;entryY=1;entryDx=0;entryDy=0;entryPerimeter=0;" edge="1" parent="_Y8b7Wgee1ZM3KUy6TIY-56" source="_Y8b7Wgee1ZM3KUy6TIY-44" target="_Y8b7Wgee1ZM3KUy6TIY-58">
          <mxGeometry relative="1" as="geometry" />
        </mxCell>
        <mxCell id="_Y8b7Wgee1ZM3KUy6TIY-73" value="" style="endArrow=none;html=1;dashed=1;strokeWidth=2;" edge="1" parent="_Y8b7Wgee1ZM3KUy6TIY-56">
          <mxGeometry width="50" height="50" relative="1" as="geometry">
            <mxPoint x="519.5" y="570" as="sourcePoint" />
            <mxPoint x="520" y="300" as="targetPoint" />
          </mxGeometry>
        </mxCell>
        <mxCell id="_Y8b7Wgee1ZM3KUy6TIY-74" value="AOP切面" style="edgeLabel;html=1;align=center;verticalAlign=middle;resizable=0;points=[];" vertex="1" connectable="0" parent="_Y8b7Wgee1ZM3KUy6TIY-73">
          <mxGeometry x="0.2222" y="1" relative="1" as="geometry">
            <mxPoint as="offset" />
          </mxGeometry>
        </mxCell>
        <mxCell id="_Y8b7Wgee1ZM3KUy6TIY-81" style="edgeStyle=orthogonalEdgeStyle;rounded=0;orthogonalLoop=1;jettySize=auto;html=1;exitX=1;exitY=0.5;exitDx=0;exitDy=0;entryX=1;entryY=0.5;entryDx=0;entryDy=0;strokeWidth=2;curved=1;" edge="1" parent="_Y8b7Wgee1ZM3KUy6TIY-56" source="_Y8b7Wgee1ZM3KUy6TIY-79" target="_Y8b7Wgee1ZM3KUy6TIY-10">
          <mxGeometry relative="1" as="geometry">
            <Array as="points">
              <mxPoint x="700" y="680" />
              <mxPoint x="700" y="415" />
            </Array>
          </mxGeometry>
        </mxCell>
        <mxCell id="_Y8b7Wgee1ZM3KUy6TIY-82" value="消费" style="edgeLabel;html=1;align=center;verticalAlign=middle;resizable=0;points=[];" vertex="1" connectable="0" parent="_Y8b7Wgee1ZM3KUy6TIY-81">
          <mxGeometry x="-0.1302" y="8" relative="1" as="geometry">
            <mxPoint as="offset" />
          </mxGeometry>
        </mxCell>
        <mxCell id="_Y8b7Wgee1ZM3KUy6TIY-88" style="edgeStyle=orthogonalEdgeStyle;curved=1;rounded=0;orthogonalLoop=1;jettySize=auto;html=1;exitX=0;exitY=0.5;exitDx=0;exitDy=0;strokeWidth=2;entryX=0;entryY=0.5;entryDx=0;entryDy=0;" edge="1" parent="_Y8b7Wgee1ZM3KUy6TIY-56" target="_Y8b7Wgee1ZM3KUy6TIY-79">
          <mxGeometry relative="1" as="geometry">
            <mxPoint x="520" y="560" as="sourcePoint" />
          </mxGeometry>
        </mxCell>
        <mxCell id="_Y8b7Wgee1ZM3KUy6TIY-90" value="收集请求日志" style="edgeLabel;html=1;align=center;verticalAlign=middle;resizable=0;points=[];" vertex="1" connectable="0" parent="_Y8b7Wgee1ZM3KUy6TIY-88">
          <mxGeometry x="-0.4273" y="-7" relative="1" as="geometry">
            <mxPoint as="offset" />
          </mxGeometry>
        </mxCell>
        <mxCell id="_Y8b7Wgee1ZM3KUy6TIY-79" value="消息队列MQ" style="shape=process;whiteSpace=wrap;html=1;backgroundOutline=1;rounded=1;shadow=0;glass=0;sketch=0;strokeColor=#000000;strokeWidth=2;fillColor=none;align=center;verticalAlign=middle;" vertex="1" parent="_Y8b7Wgee1ZM3KUy6TIY-56">
          <mxGeometry x="470" y="620" width="120" height="60" as="geometry" />
        </mxCell>
        <mxCell id="_Y8b7Wgee1ZM3KUy6TIY-92" value="记录日志并发送邮件报警" style="rounded=0;whiteSpace=wrap;html=1;shadow=0;glass=0;dashed=1;sketch=0;strokeColor=#36393d;strokeWidth=2;fillColor=#ffcc99;align=center;verticalAlign=middle;" vertex="1" parent="_Y8b7Wgee1ZM3KUy6TIY-56">
          <mxGeometry x="827" y="140" width="120" height="60" as="geometry" />
        </mxCell>
        <mxCell id="_Y8b7Wgee1ZM3KUy6TIY-93" style="edgeStyle=orthogonalEdgeStyle;curved=1;rounded=0;orthogonalLoop=1;jettySize=auto;html=1;exitX=1;exitY=0;exitDx=0;exitDy=0;entryX=0.5;entryY=1;entryDx=0;entryDy=0;strokeWidth=2;dashed=1;" edge="1" parent="_Y8b7Wgee1ZM3KUy6TIY-56" source="_Y8b7Wgee1ZM3KUy6TIY-10" target="_Y8b7Wgee1ZM3KUy6TIY-92">
          <mxGeometry relative="1" as="geometry" />
        </mxCell>
        <mxCell id="_Y8b7Wgee1ZM3KUy6TIY-99" style="edgeStyle=orthogonalEdgeStyle;curved=1;rounded=0;orthogonalLoop=1;jettySize=auto;html=1;exitX=0;exitY=0.5;exitDx=0;exitDy=0;dashed=1;strokeWidth=2;" edge="1" parent="_Y8b7Wgee1ZM3KUy6TIY-56" source="_Y8b7Wgee1ZM3KUy6TIY-94">
          <mxGeometry relative="1" as="geometry">
            <mxPoint x="680" y="350" as="targetPoint" />
          </mxGeometry>
        </mxCell>
        <mxCell id="_Y8b7Wgee1ZM3KUy6TIY-94" value="Zabbix监控" style="rounded=0;whiteSpace=wrap;html=1;shadow=0;glass=0;sketch=0;strokeColor=#000000;strokeWidth=2;fillColor=none;align=center;verticalAlign=middle;" vertex="1" parent="_Y8b7Wgee1ZM3KUy6TIY-56">
          <mxGeometry x="827" y="330" width="120" height="40" as="geometry" />
        </mxCell>
        <mxCell id="_Y8b7Wgee1ZM3KUy6TIY-98" style="edgeStyle=orthogonalEdgeStyle;curved=1;rounded=0;orthogonalLoop=1;jettySize=auto;html=1;exitX=0;exitY=0.5;exitDx=0;exitDy=0;dashed=1;strokeWidth=2;" edge="1" parent="_Y8b7Wgee1ZM3KUy6TIY-56" source="_Y8b7Wgee1ZM3KUy6TIY-97">
          <mxGeometry relative="1" as="geometry">
            <mxPoint x="680" y="410" as="targetPoint" />
          </mxGeometry>
        </mxCell>
        <mxCell id="_Y8b7Wgee1ZM3KUy6TIY-97" value="spring admin 微服务JVM进程监控" style="rounded=0;whiteSpace=wrap;html=1;shadow=0;glass=0;sketch=0;strokeColor=#000000;strokeWidth=2;fillColor=none;align=center;verticalAlign=middle;" vertex="1" parent="_Y8b7Wgee1ZM3KUy6TIY-56">
          <mxGeometry x="830" y="390" width="117" height="40" as="geometry" />
        </mxCell>
        <mxCell id="_Y8b7Wgee1ZM3KUy6TIY-101" value="微服务模块(单节点)" style="text;html=1;resizable=0;autosize=1;align=center;verticalAlign=middle;points=[];rounded=0;shadow=0;glass=0;sketch=0;" vertex="1" parent="_Y8b7Wgee1ZM3KUy6TIY-56">
          <mxGeometry x="540" y="290" width="120" height="20" as="geometry" />
        </mxCell>
      </root>
    </mxGraphModel>
  </diagram>
</mxfile>
